<svg xmlns="http://www.w3.org/2000/svg" width="626" height="442" viewBox="0 0 626 442" version="1.1">
	<path d="M 117.668 1.558 C 96.427 4.886, 75.891 13.221, 58.198 25.696 C 48.872 32.271, 30.443 51.020, 24.480 60 C 13.904 75.927, 6.502 93.644, 2.326 113.024 C 0.627 120.911, 0.500 128.416, 0.500 221 C 0.500 324.668, 0.421 322.470, 4.705 338.258 C 6.010 343.065, 6.461 343.752, 7.435 342.419 C 8.483 340.986, 10.386 340.940, 26.051 341.965 C 35.648 342.594, 44.175 343.288, 45 343.507 C 45.825 343.727, 61.575 344.397, 80 344.997 C 110.935 346.003, 120 346.897, 120 348.940 C 120 349.372, 123.488 350.258, 127.750 350.908 C 132.012 351.558, 138.717 352.600, 142.649 353.223 C 148.152 354.095, 151.492 354.067, 157.149 353.102 C 166.332 351.536, 168.137 351.032, 167.613 350.178 C 167.384 349.805, 168.468 349.454, 170.022 349.397 C 171.577 349.341, 173.589 348.553, 174.495 347.647 C 175.858 346.285, 178.512 345.989, 189.821 345.934 C 216.947 345.804, 255.300 343.600, 255.785 342.144 C 256.270 340.691, 264 340.630, 264 342.079 C 264 342.780, 265.139 342.903, 267.250 342.429 C 269.038 342.027, 271.175 341.737, 272 341.785 C 274.693 341.942, 278 340.982, 278 340.044 C 278 339.540, 276.538 338.945, 274.750 338.723 C 271.933 338.374, 272.066 338.299, 275.750 338.160 C 278.932 338.040, 280 338.377, 280 339.500 C 280 341.373, 281.447 341.379, 288.516 339.538 C 291.603 338.734, 295.526 338.355, 297.232 338.696 C 299.915 339.233, 300.243 339.076, 299.655 337.543 C 299.080 336.046, 299.428 335.836, 301.883 336.196 C 303.786 336.475, 304.642 336.229, 304.356 335.485 C 304.115 334.857, 305.731 333.749, 307.960 333.013 C 310.182 332.280, 312 331.255, 312 330.736 C 312 330.163, 315.149 330.071, 320 330.500 C 325.597 330.995, 328 330.877, 328 330.104 C 328 329.470, 329.831 329, 332.306 329 C 337.145 329, 349.276 325.256, 348.501 324.002 C 348.052 323.274, 350.480 322.773, 360.500 321.526 C 362.150 321.321, 365.525 320.484, 368 319.667 C 370.475 318.851, 373.898 317.895, 375.607 317.543 C 377.455 317.163, 379.245 315.910, 380.026 314.451 C 381.421 311.845, 387.821 307.427, 389.500 307.912 C 396.085 309.812, 440.158 310.452, 452.500 308.826 C 458 308.101, 465.538 307.506, 469.251 307.504 C 472.964 307.502, 476.001 307.221, 476.001 306.880 C 476 305.993, 483.558 304.209, 489.994 303.576 C 493.016 303.279, 495.636 302.592, 495.817 302.050 C 495.998 301.507, 497.800 300.765, 499.823 300.400 C 503.885 299.667, 506.777 298.366, 508.768 296.375 C 509.567 295.576, 511.206 295.291, 512.972 295.644 C 515.433 296.137, 516.472 295.588, 519.899 291.986 C 522.651 289.093, 524.522 287.903, 525.798 288.237 C 527.873 288.779, 528.032 288.211, 527.943 280.577 C 527.911 277.870, 527.461 274.862, 526.943 273.893 C 525.322 270.864, 525.750 269.796, 528.086 271.046 C 530.062 272.104, 531.989 271.656, 530.758 270.425 C 529.436 269.102, 526.267 269.384, 522.790 271.133 C 518.733 273.174, 512.593 273.556, 508.549 272.019 C 506.346 271.181, 505.318 271.533, 501.529 274.426 C 494.930 279.463, 483.621 280.974, 478.092 277.557 C 477.358 277.103, 474.151 278.147, 470.345 280.079 C 465.064 282.759, 462.697 283.372, 457.675 283.361 C 451.209 283.347, 443.439 280.652, 439.512 277.062 C 438.171 275.836, 435.479 275.085, 431.435 274.811 C 427.367 274.535, 424.387 273.700, 422.388 272.276 C 419.851 270.470, 418.480 270.237, 413.209 270.715 C 405.774 271.389, 399.757 269.443, 395.483 264.982 C 393.139 262.536, 391.806 261.996, 388.063 261.978 C 385.553 261.966, 381.538 261.066, 379.141 259.978 C 376.743 258.890, 374.656 258, 374.502 258 C 374.348 258, 373.922 259.600, 373.556 261.556 C 373.141 263.768, 371.413 266.587, 368.985 269.015 L 365.081 272.919 367.675 274.959 C 369.102 276.082, 370.814 277, 371.480 277 C 372.145 277, 373.453 277.843, 374.386 278.874 C 375.318 279.904, 377.976 281.002, 380.291 281.312 C 385.916 282.066, 390.015 286.496, 389.965 291.766 C 389.919 296.594, 388.560 298.894, 382.721 304.023 C 378.954 307.332, 377.377 308.114, 375.279 307.713 C 373.786 307.428, 371.627 307.853, 370.361 308.683 C 369.119 309.497, 366.611 310.034, 364.787 309.876 C 362.963 309.719, 360.837 309.983, 360.061 310.462 C 357.985 311.745, 350.334 311.522, 348.655 310.129 C 347.135 308.867, 345.543 308.425, 337.790 307.110 C 335.200 306.671, 332.500 305.853, 331.790 305.294 C 331.081 304.734, 329.216 303.968, 327.646 303.593 C 320.551 301.895, 316.780 295.939, 318.917 289.808 C 319.518 288.085, 319.894 286.579, 319.755 286.461 C 318.349 285.274, 310.676 281.999, 309.290 281.994 C 308.305 281.990, 306.211 281.315, 304.636 280.494 C 303.060 279.672, 299.607 279, 296.962 279 C 293.292 279, 291.450 278.408, 289.182 276.500 C 287.536 275.114, 284.938 273.998, 283.356 273.996 C 281.785 273.994, 279.033 273.098, 277.241 272.005 C 265.991 265.146, 268.286 248.371, 281 244.534 C 282.375 244.119, 284.924 242.428, 286.664 240.776 C 289.024 238.538, 291.059 237.653, 294.664 237.299 C 298.281 236.944, 300.130 236.137, 302 234.098 C 303.375 232.598, 305.997 230.332, 307.827 229.063 C 310.665 227.093, 311.619 226.907, 314.327 227.795 L 317.500 228.836 313.737 228.492 C 309.202 228.077, 309.626 229.520, 314.295 230.396 C 316.119 230.738, 319.370 231.914, 321.518 233.009 C 323.665 234.104, 326.201 235, 327.152 235 C 328.104 235, 329.160 235.450, 329.500 236 C 329.840 236.550, 331.693 237, 333.618 237 C 336.141 237, 336.914 237.349, 336.387 238.250 C 335.985 238.938, 336.653 238.625, 337.871 237.556 C 339.747 235.909, 339.987 235.871, 339.436 237.306 C 338.741 239.119, 340.461 239.681, 341.510 237.984 C 341.856 237.425, 342.651 237.284, 343.277 237.671 C 343.903 238.058, 345.559 238.473, 346.958 238.594 C 348.856 238.758, 348.423 238.340, 345.250 236.948 C 342.913 235.922, 341 234.823, 341 234.506 C 341 234.189, 341.900 234.411, 343 235 C 344.100 235.589, 345 235.818, 345 235.510 C 345 234.355, 351.071 238.141, 352.252 240.031 C 353.148 241.467, 354.586 242, 357.564 242 L 361.646 242 361.580 234.103 L 361.514 226.205 357.189 225.612 C 354.118 225.192, 351.940 225.510, 349.682 226.711 C 344.917 229.243, 335.730 228.915, 331.890 226.077 C 330.223 224.845, 327.304 223.692, 325.402 223.515 C 323.501 223.339, 320.858 222.481, 319.529 221.611 C 317.981 220.597, 316.045 220.241, 314.146 220.621 C 310.486 221.353, 304.838 219.584, 302.466 216.962 C 301.376 215.758, 299.399 215, 297.345 215 C 294.100 215, 294 215.122, 294 219.066 C 294 225.167, 291.455 228.876, 284.750 232.546 C 283.238 233.374, 282 234.645, 282 235.371 C 282 238.110, 277.896 240.499, 273.145 240.526 C 270.387 240.541, 267.416 241.277, 265.832 242.338 C 263.239 244.073, 256.189 244.853, 254.202 243.625 C 253.660 243.290, 251.113 243.947, 248.541 245.085 C 243.142 247.473, 237.590 247.039, 233.622 243.917 C 232.281 242.863, 229.879 242, 228.283 242 C 226.688 242, 224.509 241.340, 223.441 240.533 C 222.230 239.618, 220.339 239.273, 218.412 239.614 C 215.608 240.111, 211.359 238.808, 207 236.113 C 206.175 235.603, 203.608 234.682, 201.295 234.066 C 198.982 233.450, 195.782 231.846, 194.183 230.500 C 190.750 227.612, 188.485 220.621, 189.494 216.027 C 190.454 211.655, 195.356 206.366, 199.800 204.908 C 201.835 204.240, 204.090 202.860, 204.811 201.841 C 206.710 199.156, 211.385 197, 215.305 197 C 217.953 197, 219.688 196.055, 223.113 192.750 C 225.535 190.412, 228.632 187.774, 229.995 186.887 C 232.125 185.500, 232.285 185.049, 231.136 183.664 C 229.518 181.714, 229.389 176.009, 230.901 173.186 C 231.506 172.054, 233.576 170.560, 235.501 169.864 C 237.425 169.168, 239 168.216, 239 167.748 C 239 166.686, 246.017 163.684, 246.761 164.428 C 247.061 164.727, 249.252 163.179, 251.631 160.986 C 254.009 158.794, 256.839 157, 257.919 157 C 258.998 157, 260.091 156.662, 260.346 156.250 C 261.528 154.337, 267.433 155.896, 272.047 159.341 C 274.743 161.353, 277.268 163, 277.660 163 C 278.051 163, 279.442 164.006, 280.751 165.235 C 282.059 166.465, 284.501 167.540, 286.177 167.624 C 290.781 167.856, 294.340 171.039, 295.568 176.023 L 296.636 180.358 298.263 178.035 C 301.032 174.082, 305.144 172.014, 310.250 172.007 C 312.863 172.003, 315 171.643, 315 171.206 C 315 169.345, 323.038 162.014, 327.631 159.687 C 333.175 156.877, 343.303 154.624, 343.833 156.083 C 344.017 156.587, 345.269 157, 346.615 157 C 347.962 157, 350.588 157.637, 352.451 158.415 C 354.313 159.193, 356.136 159.531, 356.502 159.165 C 356.867 158.799, 357.017 158.950, 356.834 159.500 C 356.271 161.189, 365.523 168.955, 368.903 169.631 C 370.656 169.981, 373.519 171.783, 375.265 173.634 C 377.911 176.439, 379.155 177, 382.731 177 C 391.163 177, 399.354 183.177, 401.295 191 C 401.882 193.367, 402.286 193.500, 408.863 193.504 C 415.715 193.507, 415.835 193.462, 417.609 190.168 C 420.268 185.231, 429.191 177.523, 436.276 174.043 C 440.175 172.128, 445.543 170.545, 450.645 169.805 C 458.031 168.734, 459.607 168.825, 467.538 170.783 C 472.349 171.970, 476.740 172.661, 477.297 172.316 C 477.920 171.932, 477.994 172.201, 477.490 173.015 C 476.891 173.985, 477.132 174.164, 478.388 173.681 C 479.332 173.319, 479.855 173.425, 479.552 173.916 C 479.248 174.408, 480.912 175.947, 483.250 177.337 C 485.587 178.726, 489.621 181.919, 492.214 184.432 C 495.116 187.245, 497.838 189, 499.297 189 C 500.600 189, 502.004 189.338, 502.417 189.750 C 502.829 190.163, 503.467 190.501, 503.833 190.502 C 504.200 190.502, 505.901 191.502, 507.613 192.722 C 509.325 193.942, 511.084 194.617, 511.522 194.220 C 511.960 193.824, 512.030 194.305, 511.676 195.288 C 511.278 196.397, 511.583 197.286, 512.479 197.630 C 513.274 197.935, 514.196 199.043, 514.529 200.092 C 515.196 202.192, 518.991 202.748, 519.015 200.750 C 519.026 199.887, 519.313 199.946, 519.944 200.943 C 520.688 202.120, 521.340 202.166, 523.475 201.193 C 524.916 200.537, 526.635 200.032, 527.297 200.070 C 527.959 200.109, 527.600 200.494, 526.500 200.927 C 524.869 201.568, 525.193 201.795, 528.250 202.156 C 530.313 202.399, 532 202.239, 532 201.799 C 532 201.360, 531.212 200.964, 530.250 200.921 C 528.871 200.859, 528.814 200.719, 529.982 200.260 C 530.797 199.940, 532.067 199.076, 532.804 198.339 C 533.540 197.603, 534.795 197, 535.593 197 C 536.390 197, 537.555 195.875, 538.182 194.500 C 539.427 191.767, 540.941 191.341, 542.800 193.200 C 543.733 194.133, 544 194.133, 544 193.200 C 544 192.540, 544.707 192, 545.571 192 C 546.436 192, 547.833 191.310, 548.677 190.466 C 549.520 189.622, 551 189.183, 551.964 189.489 C 552.929 189.795, 554.286 189.360, 554.981 188.523 C 555.676 187.685, 557.240 187, 558.456 187 C 559.672 187, 561.979 185.662, 563.583 184.028 C 566.855 180.693, 568 180.297, 568 182.500 C 568 184.696, 568.858 184.364, 572.071 180.924 C 573.652 179.232, 575.356 178.102, 575.859 178.413 C 576.362 178.724, 577.329 178.308, 578.009 177.489 C 578.689 176.670, 580.315 176, 581.622 176 C 583.069 176, 584 175.413, 584 174.500 C 584 173.386, 585.172 173, 588.550 173 C 591.052 173, 594.314 172.404, 595.800 171.675 C 597.285 170.946, 599.916 170.268, 601.647 170.167 C 603.378 170.066, 606.401 169.313, 608.365 168.492 C 610.329 167.671, 614.180 167, 616.923 167 C 621.886 167, 621.913 167.018, 622.657 170.750 C 623.611 175.539, 623.629 225.598, 622.678 229.250 C 622.099 231.475, 621.393 232, 618.981 232 C 617.341 232, 616 232.450, 616 233 C 616 233.550, 615.212 234.014, 614.250 234.032 C 613.288 234.049, 611.626 234.724, 610.559 235.532 C 609.491 236.339, 607.691 237.012, 606.559 237.028 C 605.383 237.043, 603.428 238.533, 602 240.500 C 600.625 242.395, 598.895 243.957, 598.156 243.972 C 597.417 243.988, 596.577 244.900, 596.290 246 C 596.002 247.100, 595.144 248, 594.383 248 C 593.436 248, 593 249.261, 593 252 C 593 254.200, 592.605 256, 592.121 256 C 590.988 256, 589.484 259.873, 587.462 268 C 586.573 271.575, 585.430 274.927, 584.923 275.450 C 584.415 275.972, 584 277.498, 584 278.840 C 584 280.182, 583.236 281.838, 582.303 282.520 C 579.995 284.208, 578.142 293.684, 578.064 304.191 C 578.029 308.971, 577.550 313.160, 577 313.500 C 576.450 313.840, 576 314.901, 576 315.858 C 576 318.888, 568.628 325.568, 563.870 326.849 C 555.836 329.012, 545.644 329.874, 527.500 329.924 C 506.880 329.981, 495.806 330.807, 494.804 332.362 C 494.422 332.956, 493.798 333.132, 493.419 332.752 C 493.040 332.373, 493.501 330.884, 494.444 329.444 C 495.388 328.005, 495.899 326.566, 495.580 326.247 C 495.261 325.928, 495 326.218, 495 326.892 C 495 327.566, 494.480 327.797, 493.845 327.405 C 493.181 326.994, 492.961 327.127, 493.327 327.720 C 493.676 328.285, 492.745 330.042, 491.256 331.624 C 489.767 333.206, 488.626 334.762, 488.719 335.083 C 488.813 335.404, 488.351 335.733, 487.694 335.814 C 483.450 336.337, 469.834 338.985, 469.122 339.425 C 468.647 339.718, 465.613 339.081, 462.379 338.009 C 459.146 336.936, 453.940 335.338, 450.811 334.456 C 444.410 332.651, 443.594 331.946, 442.180 327 C 441.630 325.075, 441.140 324.063, 441.090 324.750 C 441.041 325.438, 440.415 326, 439.699 326 C 437.935 326, 433.017 328.336, 433.008 329.179 C 433.004 329.552, 432.432 330.452, 431.737 331.179 C 431.042 331.905, 429.690 333.725, 428.731 335.223 C 427.023 337.893, 427.038 337.979, 429.494 339.588 C 431.948 341.196, 432.934 344, 431.045 344 C 430.520 344, 429.794 345.581, 429.431 347.514 C 429.069 349.447, 428.036 351.484, 427.136 352.042 C 425.705 352.929, 425.751 353.038, 427.500 352.913 C 431.509 352.626, 432.417 353.224, 429.145 353.998 C 426.488 354.625, 425.401 354.401, 423.918 352.918 C 422.888 351.888, 421.363 351.307, 420.528 351.627 C 418.440 352.429, 419.794 354.287, 422.038 353.700 C 423.303 353.369, 423.685 353.657, 423.303 354.654 C 423.001 355.439, 423.147 355.991, 423.627 355.879 C 424.107 355.768, 425.775 356.203, 427.334 356.846 C 428.893 357.488, 430.657 357.712, 431.254 357.343 C 431.945 356.916, 432.108 357.276, 431.701 358.336 C 431.292 359.404, 431.569 360, 432.474 360 C 433.251 360, 435.374 360.846, 437.193 361.879 C 439.012 362.912, 444.775 364.765, 450 365.996 C 455.225 367.228, 459.801 368.712, 460.169 369.296 C 460.537 369.879, 466.606 371.157, 473.655 372.135 C 480.704 373.114, 487.378 374.348, 488.486 374.879 C 489.593 375.410, 493.186 376.120, 496.468 376.456 C 499.750 376.793, 505.974 377.972, 510.298 379.076 C 514.623 380.180, 518.987 380.822, 519.996 380.501 C 521.006 380.181, 522.138 380.414, 522.511 381.018 C 522.885 381.623, 524.161 382.006, 525.346 381.868 C 526.530 381.730, 530.650 382.260, 534.500 383.046 C 540.500 384.269, 541.071 384.558, 538.500 385.065 C 536.033 385.552, 536.565 385.776, 541.500 386.327 C 551.941 387.492, 558.240 388.907, 559.976 390.478 C 560.932 391.344, 563.564 392.014, 566.079 392.032 C 568.510 392.049, 571.374 392.724, 572.441 393.532 C 573.523 394.350, 576.511 395, 579.191 395 C 581.836 395, 584 395.398, 584 395.883 C 584 396.369, 584.887 396.999, 585.971 397.282 C 591.505 398.729, 611.093 369.008, 618.412 348.060 C 621.417 339.458, 625 323.391, 625 318.517 C 625 316.583, 625.450 315, 626 315 C 626.660 315, 626.995 282.760, 626.985 220.250 C 626.975 158.708, 626.630 126.026, 626 127 C 625.288 128.102, 625.027 127.397, 625.015 124.347 C 625.007 122.062, 624.148 115.987, 623.108 110.847 C 617.945 85.348, 605.892 62.416, 587.557 43.211 C 567.860 22.579, 544.464 9.412, 515.500 2.657 C 506.541 0.567, 505.625 0.557, 316.500 0.366 C 158.904 0.206, 124.994 0.410, 117.668 1.558 M 341 94 C 340 94.646, 339.917 94.974, 340.750 94.985 C 341.717 94.997, 342 100.850, 342 120.878 C 342 142.006, 342.260 146.971, 343.419 147.933 C 344.535 148.859, 345.036 148.759, 345.759 147.466 C 346.266 146.561, 346.984 145.895, 347.357 145.986 C 349.099 146.412, 354.004 144.712, 354.039 143.671 C 354.061 143.027, 354.667 143.850, 355.386 145.500 C 357.064 149.351, 358.396 150.347, 364.500 152.318 C 378.901 156.967, 380.452 157.226, 387.105 156.093 C 390.622 155.494, 394.625 154.861, 396 154.685 C 399.202 154.277, 406 148.208, 406 145.757 C 406 144.676, 406.455 144.163, 407.074 144.546 C 407.664 144.910, 407.233 143.418, 406.116 141.228 C 404.150 137.374, 402.387 136, 399.408 136 C 398.622 136, 395.710 134.405, 392.935 132.455 C 383.709 125.969, 378.763 125.617, 372.966 131.032 C 371.218 132.664, 368.769 134, 367.523 134 C 365.551 134, 365.169 133.333, 364.576 128.859 C 363.726 122.455, 359.994 110.886, 358.980 111.512 C 358.565 111.769, 358.288 111.196, 358.363 110.239 C 358.438 109.283, 357.954 108.607, 357.286 108.738 C 356.609 108.871, 356.312 108.350, 356.615 107.561 C 357.149 106.169, 345.126 92.983, 343.353 93.015 C 342.884 93.024, 341.825 93.467, 341 94 M 342.083 94.283 C 342.313 94.439, 343.400 95.226, 344.500 96.033 C 346.350 97.390, 346.397 97.369, 345.128 95.750 C 344.373 94.787, 343.285 94, 342.711 94 C 342.137 94, 341.854 94.127, 342.083 94.283 M 253.473 98.044 C 253.148 98.570, 253.385 99, 254 99 C 254.615 99, 254.896 99.360, 254.624 99.800 C 254.352 100.239, 255.563 102.443, 257.315 104.695 C 259.067 106.948, 261.055 109.626, 261.734 110.646 C 262.728 112.139, 262.739 111.916, 261.789 109.500 C 261.140 107.850, 260.192 105.938, 259.682 105.250 C 259.118 104.490, 259.117 104, 259.678 104 C 260.185 104, 261.231 104.563, 262.002 105.250 C 263.176 106.297, 263.210 106.241, 262.210 104.908 C 261.554 104.032, 261.313 103.020, 261.675 102.658 C 262.037 102.296, 261.246 101.984, 259.917 101.965 L 257.500 101.929 259.999 100.546 L 262.498 99.163 259.499 98.498 C 257.850 98.132, 255.952 97.665, 255.282 97.460 C 254.612 97.255, 253.798 97.518, 253.473 98.044 M 344.032 99.597 C 344.080 100.967, 346.907 104.427, 347.496 103.837 C 347.780 103.553, 347.110 102.280, 346.006 101.007 C 344.903 99.735, 344.014 99.100, 344.032 99.597 M 529.500 104.929 C 525.073 105.997, 522.201 107.764, 520.385 110.535 C 519.338 112.133, 517.834 113, 516.107 113 C 513.841 113, 509.750 114.989, 508 116.942 C 507.725 117.249, 505.865 118.330, 503.868 119.344 C 495.143 123.774, 496.580 135.345, 506.202 138.139 C 508.566 138.825, 511.488 140.010, 512.695 140.772 C 513.902 141.534, 515.927 142.024, 517.195 141.860 C 518.463 141.696, 519.982 141.862, 520.570 142.229 C 521.159 142.595, 522.734 143.107, 524.070 143.365 C 525.407 143.623, 527.921 144.559, 529.657 145.444 C 532.421 146.853, 533.311 146.883, 536.793 145.683 C 538.981 144.930, 542.173 144.519, 543.887 144.770 C 545.709 145.037, 547.963 144.599, 549.311 143.716 C 550.580 142.885, 552.772 142.425, 554.183 142.695 C 556.125 143.066, 557.657 142.341, 560.491 139.709 C 562.549 137.797, 565.069 135.517, 566.091 134.642 C 572.505 129.149, 567.605 116.904, 558.875 116.610 C 556.930 116.545, 554.687 115.587, 553.346 114.250 C 552.106 113.013, 550.567 112, 549.927 112 C 549.288 112, 547.254 110.675, 545.409 109.055 C 543.564 107.435, 540.355 105.637, 538.277 105.060 C 534.095 103.899, 533.787 103.894, 529.500 104.929 M 109.148 107.534 C 107.305 108.334, 104.910 110.116, 103.826 111.495 C 102.742 112.873, 100.823 114, 99.562 114 C 98.301 114, 96.002 114.997, 94.452 116.216 C 92.902 117.435, 90.255 119.123, 88.568 119.966 C 84.999 121.752, 82.575 126.171, 83.388 129.411 C 84.293 133.014, 87.949 137, 90.350 137 C 91.563 137, 93.597 137.730, 94.870 138.622 C 96.144 139.514, 98.381 140.339, 99.843 140.456 C 103.571 140.755, 107.924 141.929, 111.894 143.709 C 114.618 144.930, 116.023 145.010, 119.010 144.115 C 121.057 143.502, 124.341 143, 126.307 143 C 128.273 143, 130.160 142.550, 130.500 142 C 130.840 141.450, 132.585 141, 134.379 141 C 136.474 141, 138.386 140.196, 139.729 138.750 C 140.878 137.512, 142.947 135.720, 144.326 134.766 C 147.168 132.801, 148.469 128.413, 147.508 124.038 C 146.790 120.765, 141.724 117, 138.040 117 C 136.816 117, 134.671 116.100, 133.273 115 C 131.874 113.900, 130.164 113, 129.472 113 C 128.780 113, 127.963 112.345, 127.656 111.545 C 126.822 109.372, 119.542 105.994, 115.790 106.039 C 113.980 106.061, 110.992 106.733, 109.148 107.534 M 264 110.941 C 264 111.459, 264.445 112.157, 264.989 112.493 C 265.555 112.843, 265.723 112.442, 265.382 111.552 C 264.717 109.820, 264 109.503, 264 110.941 M 266.526 114.950 C 265.687 116.573, 265.039 118.711, 265.086 119.700 C 265.143 120.897, 265.432 120.643, 265.948 118.942 C 266.375 117.534, 267.252 115.397, 267.897 114.192 C 268.543 112.986, 268.841 112, 268.561 112 C 268.281 112, 267.365 113.328, 266.526 114.950 M 253.250 117.709 C 250.363 118.560, 248 119.634, 248 120.097 C 248 120.559, 247.264 120.655, 246.364 120.309 C 243.333 119.146, 245.400 121.908, 250.993 126.495 C 254.014 128.973, 257.052 131, 257.743 131 C 258.434 131, 259 131.900, 259 133 C 259 134.100, 259.418 135, 259.929 135 C 260.439 135, 261.564 135.707, 262.429 136.571 C 263.857 138, 263.999 137.795, 263.985 134.321 C 263.974 131.608, 263.703 130.921, 263.051 131.952 C 262.545 132.751, 262.390 133.822, 262.705 134.332 C 263.020 134.842, 262.653 135.039, 261.889 134.771 C 261.094 134.491, 260.583 133.132, 260.695 131.591 C 260.858 129.344, 260.569 129.002, 258.945 129.517 C 257.848 129.866, 257 129.670, 257 129.067 C 257 128.480, 257.675 128, 258.500 128 C 259.570 128, 260 126.911, 260 124.200 C 260 122.110, 260.563 119.833, 261.250 119.141 C 262.252 118.131, 262.173 118.006, 260.851 118.509 C 259.944 118.854, 258.862 118.586, 258.447 117.914 C 257.981 117.160, 258.107 116.948, 258.776 117.362 C 259.373 117.731, 260.144 117.575, 260.490 117.016 C 261.320 115.674, 259.596 115.838, 253.250 117.709 M 264.195 124.500 C 264.215 126.150, 264.439 126.704, 264.693 125.731 C 264.947 124.758, 264.930 123.408, 264.656 122.731 C 264.382 122.054, 264.175 122.850, 264.195 124.500 M 251 125 C 251 125.550, 251.477 126, 252.059 126 C 252.641 126, 252.840 125.550, 252.500 125 C 252.160 124.450, 251.684 124, 251.441 124 C 251.198 124, 251 124.450, 251 125 M 0.480 221.500 C 0.480 273.750, 0.601 295.272, 0.750 269.326 C 0.898 243.380, 0.898 200.630, 0.750 174.326 C 0.601 148.022, 0.480 169.250, 0.480 221.500 M 254.405 138.233 C 252.519 140.443, 252.520 140.451, 254.500 139 C 256.480 137.549, 256.481 137.557, 254.595 139.767 C 252.643 142.055, 251.394 142.790, 252.500 141 C 253.569 139.270, 251.992 139.904, 248.387 142.654 C 246.473 144.114, 245.266 145.633, 245.704 146.031 C 246.142 146.429, 248.789 147.496, 251.586 148.403 C 256.030 149.844, 257.015 149.874, 259.395 148.639 C 262.977 146.781, 262.808 145.614, 258.869 145 C 257.103 144.725, 255.544 143.926, 255.404 143.225 C 255.265 142.524, 255.379 142.411, 255.658 142.975 C 255.938 143.539, 257.029 144, 258.083 144 C 259.653 144, 260 143.275, 260 140 C 260 136.779, 259.641 136, 258.155 136 C 257.140 136, 255.453 137.005, 254.405 138.233 M 264.158 142 C 264.158 143.375, 264.385 143.938, 264.662 143.250 C 264.940 142.563, 264.940 141.438, 264.662 140.750 C 264.385 140.063, 264.158 140.625, 264.158 142 M 432.046 141.730 C 431.246 142.045, 430.121 142.706, 429.546 143.199 C 428.971 143.691, 426.925 144.914, 425 145.916 C 422.231 147.357, 421.500 148.339, 421.500 150.619 C 421.500 153.299, 421.981 153.656, 428.406 155.739 C 441.443 159.967, 452.497 155.670, 449.393 147.582 C 449.059 146.712, 447.822 145.999, 446.643 145.999 C 445.464 145.998, 443.193 144.873, 441.594 143.499 C 438.838 141.128, 435.259 140.466, 432.046 141.730 M 256 147 C 256 147.550, 256.450 148, 257 148 C 257.550 148, 258 147.550, 258 147 C 258 146.450, 257.550 146, 257 146 C 256.450 146, 256 146.450, 256 147 M 266.075 150 C 266.071 151.441, 268.892 157.166, 268.965 155.865 C 268.984 155.515, 268.343 153.715, 267.539 151.865 C 266.736 150.014, 266.077 149.175, 266.075 150 M 261 152 C 263.239 154.239, 264.858 154.739, 263.131 152.658 C 262.519 151.920, 262.313 151.020, 262.675 150.658 C 263.037 150.296, 262.358 150, 261.167 150 L 259 150 261 152 M 173.500 153.192 C 172.400 153.814, 171.140 154.925, 170.700 155.661 C 170.260 156.398, 169.274 157, 168.507 157 C 167.741 157, 165.534 157.933, 163.602 159.073 C 157.485 162.681, 157.590 167.552, 163.843 170.311 C 165.949 171.240, 168.435 172, 169.368 172 C 170.301 172, 172.646 172.661, 174.580 173.469 C 180.009 175.737, 190.908 173.439, 194.993 169.165 C 196.647 167.434, 198 165.319, 198 164.464 C 198 162.352, 193.512 158.007, 191.295 157.972 C 190.308 157.957, 187.732 156.607, 185.572 154.972 C 181.422 151.832, 177.046 151.187, 173.500 153.192 M 613.813 168.683 C 614.534 168.972, 615.397 168.936, 615.729 168.604 C 616.061 168.272, 615.471 168.036, 614.417 168.079 C 613.252 168.127, 613.015 168.364, 613.813 168.683 M 557.500 185 C 557.840 185.550, 558.541 186, 559.059 186 C 559.577 186, 560 185.550, 560 185 C 560 184.450, 559.298 184, 558.441 184 C 557.584 184, 557.160 184.450, 557.500 185 M 236.500 189.959 C 238.150 190.401, 238.868 190.817, 238.095 190.882 C 237.003 190.974, 237.094 191.446, 238.500 193 C 239.495 194.100, 240.846 195, 241.501 195 C 242.157 195, 243.999 195.648, 245.596 196.441 C 247.193 197.233, 251.650 198.513, 255.500 199.284 C 261.434 200.472, 264.290 200.638, 269.219 200.081 C 269.614 200.037, 269.687 199.213, 269.381 198.250 C 269.019 197.111, 269.711 197.460, 271.364 199.250 C 273.191 201.228, 274.873 202, 277.356 202 C 280.794 202, 280.808 201.981, 281.153 196.904 C 281.344 194.102, 281.175 191.608, 280.778 191.363 C 280.381 191.117, 278.971 191.628, 277.644 192.498 C 276.308 193.373, 273.620 193.970, 271.620 193.835 C 269.633 193.701, 267.466 194.134, 266.804 194.796 C 265.201 196.399, 261.515 196.318, 257.651 194.594 C 253.305 192.654, 249.241 191.746, 244.332 191.617 C 242.040 191.556, 240.240 191.055, 240.332 190.503 C 240.424 189.952, 238.925 189.422, 237 189.327 L 233.500 189.154 236.500 189.959 M 524.750 191.662 C 525.438 191.940, 526.563 191.940, 527.250 191.662 C 527.938 191.385, 527.375 191.158, 526 191.158 C 524.625 191.158, 524.063 191.385, 524.750 191.662 M 518 195.559 C 518 196.966, 518.408 197.866, 518.906 197.558 C 519.404 197.250, 519.577 196.098, 519.289 194.999 C 518.570 192.247, 518 192.495, 518 195.559 M 514.032 196.250 C 514.069 197.694, 516.403 201, 517.386 201 C 517.752 201, 517.353 199.650, 516.500 198 C 514.854 194.817, 513.980 194.197, 514.032 196.250 M 537 201.714 C 537.825 202.020, 539.400 202.684, 540.500 203.190 C 542.468 204.096, 542.469 204.085, 540.559 202.555 C 539.491 201.700, 537.916 201.036, 537.059 201.079 C 535.712 201.147, 535.704 201.234, 537 201.714 M 536 203.305 C 536 203.501, 538.138 205.171, 540.750 207.017 C 544.181 209.441, 544.945 209.737, 543.502 208.084 C 541.721 206.043, 536 202.399, 536 203.305 M 279.507 206.989 C 279.157 207.555, 279.558 207.723, 280.448 207.382 C 282.180 206.717, 282.497 206, 281.059 206 C 280.541 206, 279.843 206.445, 279.507 206.989 M 281.410 208.854 C 281.700 209.323, 280.826 210.214, 279.469 210.832 C 278.111 211.451, 276.950 212.754, 276.889 213.729 C 276.636 217.786, 277.229 220.566, 278.572 221.610 C 279.358 222.221, 280 223.233, 280 223.860 C 280 224.487, 280.675 225, 281.500 225 C 282.325 225, 283 225.434, 283 225.965 C 283 226.495, 283.946 227.436, 285.102 228.054 C 286.879 229.006, 287.650 228.751, 290.102 226.403 C 292.479 224.125, 293 222.797, 293 219.014 C 293 214.688, 292.792 214.326, 289.643 213.188 C 287.797 212.520, 285.477 211.080, 284.488 209.987 C 282.725 208.039, 280.370 207.172, 281.410 208.854 M 549.564 216.293 C 549.940 217.279, 550.499 217.834, 550.807 217.526 C 551.115 217.219, 550.808 216.412, 550.124 215.733 C 549.136 214.753, 549.022 214.868, 549.564 216.293 M 134 222.254 C 132.075 222.897, 128.341 225.578, 125.702 228.211 C 121.847 232.060, 120.234 233, 117.487 233 C 115.133 233, 113.030 233.913, 110.730 235.932 C 108.894 237.544, 106.183 239.167, 104.706 239.538 C 101.421 240.362, 96.057 246.262, 95.844 249.285 C 95.214 258.269, 99.306 264.078, 107.094 265.253 C 108.417 265.452, 111.075 266.626, 113 267.860 C 115.486 269.455, 117.530 269.980, 120.056 269.674 C 122.147 269.420, 124.388 269.810, 125.497 270.621 C 126.534 271.380, 128.410 272, 129.667 272 C 130.924 272, 133.425 272.898, 135.226 273.996 C 138.954 276.270, 142.608 276.531, 146.685 274.816 C 148.233 274.164, 152.040 273.602, 155.144 273.566 C 159.005 273.521, 161.388 272.957, 162.690 271.780 C 164.047 270.552, 165.581 270.220, 168.046 270.620 C 170.657 271.044, 172.172 270.653, 174.250 269.018 C 175.763 267.828, 177 266.213, 177 265.427 C 177 264.642, 177.720 264, 178.600 264 C 181.547 264, 186.699 257.741, 187.460 253.235 C 188.858 244.960, 182.058 237, 173.593 237 C 170.515 237, 169.155 236.478, 168.186 234.926 C 167.474 233.786, 165.228 232.158, 163.195 231.310 C 161.163 230.461, 158.384 228.653, 157.021 227.291 C 155.657 225.929, 153.222 224.132, 151.609 223.298 C 147.791 221.324, 138.444 220.770, 134 222.254 M 364 251.339 C 364 252.303, 363.441 252.723, 362.590 252.396 C 361.743 252.071, 360.918 252.682, 360.523 253.928 C 360.161 255.067, 359.289 256, 358.584 256 C 357.880 256, 356.477 257.834, 355.466 260.076 C 353.892 263.567, 353.834 264.285, 355.064 265.076 C 356.311 265.878, 356.309 266.123, 355.052 266.931 C 353.929 267.654, 354.266 268.006, 356.552 268.500 C 358.173 268.851, 360.538 269.559, 361.807 270.074 C 364.670 271.234, 367.133 270.026, 369.939 266.086 C 373.783 260.687, 373.461 257.982, 368.454 253.620 C 365.324 250.894, 364 250.215, 364 251.339 M 530 264.559 C 530 265.416, 530.457 265.835, 531.016 265.490 C 531.575 265.144, 531.774 264.443, 531.457 263.931 C 530.600 262.544, 530 262.802, 530 264.559 M 581.272 300 C 581.272 302.475, 581.467 303.488, 581.706 302.250 C 581.944 301.012, 581.944 298.988, 581.706 297.750 C 581.467 296.512, 581.272 297.525, 581.272 300 M 386.872 302.750 C 385.629 304.336, 385.664 304.371, 387.250 303.128 C 388.916 301.821, 389.445 301, 388.622 301 C 388.415 301, 387.627 301.788, 386.872 302.750 M 259.706 309.411 C 257.619 310.835, 255.586 312, 255.188 312 C 254.790 312, 252.785 313.141, 250.732 314.536 C 247.910 316.454, 247 317.757, 247 319.881 C 247 324.130, 249.878 326.074, 258.500 327.650 C 260.150 327.951, 262.312 328.632, 263.304 329.163 C 265.774 330.485, 278.920 328.293, 281.616 326.110 C 287.204 321.585, 286.739 314.798, 280.758 313.602 C 279.058 313.262, 276.135 311.815, 274.263 310.387 C 269.237 306.553, 264.373 306.227, 259.706 309.411 M 148.250 318.930 C 146.463 320.053, 145 321.427, 145 321.985 C 145 322.543, 143.960 323, 142.689 323 C 141.417 323, 139.483 323.788, 138.390 324.750 C 137.297 325.712, 135.075 327.189, 133.451 328.031 C 128.230 330.740, 129.126 339.254, 134.779 340.646 C 136.275 341.015, 138.476 341.948, 139.670 342.720 C 140.863 343.493, 142.438 344.023, 143.170 343.899 C 144.953 343.598, 150.197 345.037, 151.741 346.253 C 152.423 346.790, 154.448 346.941, 156.241 346.588 C 158.033 346.235, 160.929 345.970, 162.675 345.999 C 164.421 346.029, 166.135 345.591, 166.484 345.026 C 166.833 344.462, 168.329 343.996, 169.809 343.991 C 172.845 343.982, 179.928 337.931, 180.115 335.187 C 180.506 329.463, 179.295 327.574, 174.170 325.912 C 172.152 325.257, 168.117 323.151, 165.204 321.233 C 158.513 316.826, 152.832 316.054, 148.250 318.930 M 321.750 322.706 C 322.988 322.944, 325.012 322.944, 326.250 322.706 C 327.488 322.467, 326.475 322.272, 324 322.272 C 321.525 322.272, 320.512 322.467, 321.750 322.706 M 313.750 324.706 C 314.988 324.944, 317.012 324.944, 318.250 324.706 C 319.488 324.467, 318.475 324.272, 316 324.272 C 313.525 324.272, 312.512 324.467, 313.750 324.706 M 333.813 327.683 C 334.534 327.972, 335.397 327.936, 335.729 327.604 C 336.061 327.272, 335.471 327.036, 334.417 327.079 C 333.252 327.127, 333.015 327.364, 333.813 327.683 M 300.269 332.693 C 301.242 332.947, 302.592 332.930, 303.269 332.656 C 303.946 332.382, 303.150 332.175, 301.500 332.195 C 299.850 332.215, 299.296 332.439, 300.269 332.693 M 291.500 334 C 289.824 334.720, 290.026 334.871, 292.750 334.930 C 294.538 334.968, 296 334.550, 296 334 C 296 332.813, 294.263 332.813, 291.500 334 M 490.583 333.866 C 490.152 334.563, 490.070 335.403, 490.400 335.733 C 491.295 336.628, 492.271 335.312, 491.787 333.862 C 491.449 332.846, 491.213 332.846, 490.583 333.866 M 494.500 335 C 494.160 335.550, 494.359 336, 494.941 336 C 495.523 336, 496 335.550, 496 335 C 496 334.450, 495.802 334, 495.559 334 C 495.316 334, 494.840 334.450, 494.500 335 M 283.738 335.692 C 281.283 336.332, 282.599 338, 285.559 338 C 287.062 338, 288 337.424, 288 336.500 C 288 335.002, 287.062 334.824, 283.738 335.692 M 236.269 342.693 C 237.242 342.947, 238.592 342.930, 239.269 342.656 C 239.946 342.382, 239.150 342.175, 237.500 342.195 C 235.850 342.215, 235.296 342.439, 236.269 342.693 M 201.750 344.706 C 202.988 344.944, 205.012 344.944, 206.250 344.706 C 207.488 344.467, 206.475 344.272, 204 344.272 C 201.525 344.272, 200.512 344.467, 201.750 344.706 M 405.500 347 C 403.592 347.820, 403.603 347.863, 405.750 347.930 C 406.988 347.968, 408 347.550, 408 347 C 408 346.450, 407.887 346.032, 407.750 346.070 C 407.613 346.109, 406.600 346.527, 405.500 347 M 440 351 C 440 353.200, 440.395 355, 440.878 355 C 442.442 355, 443.780 352.566, 443.765 349.750 C 443.754 347.733, 443.250 347, 441.875 347 C 440.354 347, 440 347.756, 440 351 M 410.813 348.683 C 411.534 348.972, 412.397 348.936, 412.729 348.604 C 413.061 348.272, 412.471 348.036, 411.417 348.079 C 410.252 348.127, 410.015 348.364, 410.813 348.683 M 405.500 350 C 404.718 351.266, 406.042 351.266, 408 350 C 409.293 349.165, 409.266 349.029, 407.809 349.015 C 406.879 349.007, 405.840 349.450, 405.500 350 M 428.750 355.662 C 429.438 355.940, 430.563 355.940, 431.250 355.662 C 431.938 355.385, 431.375 355.158, 430 355.158 C 428.625 355.158, 428.063 355.385, 428.750 355.662 M 440 358.594 C 440 359.367, 440.900 360, 442 360 C 443.100 360, 444 359.602, 444 359.117 C 444 358.631, 443.100 357.998, 442 357.710 C 440.700 357.370, 440 357.680, 440 358.594 M 448 361 C 448 361.550, 448.873 362, 449.941 362 C 451.009 362, 452.160 361.550, 452.500 361 C 452.851 360.433, 452.010 360, 450.559 360 C 449.152 360, 448 360.450, 448 361 M 386.635 365.073 C 383.803 367.300, 383.236 370.637, 385.250 373.222 C 388.260 377.086, 413.271 379.456, 420.251 376.540 C 422.173 375.736, 424.126 375.399, 424.590 375.790 C 425.054 376.180, 424.789 375.600, 424 374.500 C 423.211 373.400, 422.960 372.834, 423.441 373.241 C 424.429 374.079, 427 372.283, 427 370.755 C 427 370.163, 426.432 370.226, 425.608 370.911 C 423.279 372.844, 411.109 373.268, 404.996 371.630 C 395.187 369.001, 393.021 367.931, 392.386 365.400 C 391.646 362.455, 390.076 362.365, 386.635 365.073 M 464 366.500 C 464 367.611, 465.103 367.979, 468.250 367.919 L 472.500 367.838 469.500 366.464 C 465.555 364.658, 464 364.668, 464 366.500 M 21.581 376.750 C 29.460 389.188, 42.870 403.855, 54.265 412.499 C 58.577 415.771, 59.177 415.966, 60.586 414.557 C 62.161 412.982, 62.943 412.821, 70.957 412.427 C 73.872 412.283, 75.948 411.566, 76.957 410.354 C 79.713 407.043, 83.856 405.429, 86.062 406.806 C 87.622 407.781, 88 407.752, 88 406.660 C 88 405.914, 89.800 404.492, 92 403.500 C 94.200 402.508, 96 401.333, 96 400.888 C 96 400.444, 97.912 399.536, 100.250 398.870 C 102.588 398.205, 105.443 396.824, 106.595 395.802 C 107.812 394.722, 109.383 394.210, 110.345 394.579 C 111.565 395.047, 112 394.656, 112 393.091 C 112 391.605, 113.126 390.459, 115.750 389.273 C 120.473 387.140, 123 385.073, 123 383.345 C 123 382.605, 122.325 382, 121.500 382 C 120.675 382, 120 381.640, 120 381.201 C 120 380.437, 114.147 377.940, 111 377.363 C 103.680 376.019, 89.106 374.873, 77.750 374.748 C 70.188 374.665, 64 374.237, 64 373.798 C 64 373.359, 54.352 373, 42.559 373 C 29.344 373, 20.881 372.616, 20.500 372 C 20.160 371.450, 19.445 371, 18.910 371 C 18.376 371, 19.578 373.587, 21.581 376.750 M 64.750 415.662 C 65.438 415.940, 66.563 415.940, 67.250 415.662 C 67.938 415.385, 67.375 415.158, 66 415.158 C 64.625 415.158, 64.063 415.385, 64.750 415.662" stroke="none" fill="black" fill-rule="evenodd"/>
</svg>